<svg width="171" height="163" viewBox="0 0 171 163" fill="none" xmlns="http://www.w3.org/2000/svg">
<ellipse cx="85.5" cy="81.5" rx="85.5" ry="81.5" fill="black"/>
<path d="M59.0447 127V39.7273H89.5561C95.6357 39.7273 100.65 40.7784 104.599 42.8807C108.548 44.9545 111.488 47.7528 113.42 51.2756C115.352 54.7699 116.317 58.6477 116.317 62.9091C116.317 66.6591 115.65 69.7557 114.315 72.1989C113.008 74.642 111.275 76.5739 109.116 77.9943C106.985 79.4148 104.67 80.4659 102.17 81.1477V82C104.84 82.1705 107.525 83.108 110.224 84.8125C112.923 86.517 115.181 88.9602 116.999 92.142C118.817 95.3239 119.727 99.2159 119.727 103.818C119.727 108.193 118.732 112.128 116.744 115.622C114.755 119.116 111.616 121.886 107.326 123.932C103.036 125.977 97.4538 127 90.5788 127H59.0447ZM69.6129 117.625H90.5788C97.4822 117.625 102.383 116.29 105.281 113.619C108.207 110.92 109.67 107.653 109.67 103.818C109.67 100.864 108.917 98.1364 107.411 95.6364C105.906 93.108 103.761 91.0909 100.977 89.5852C98.1925 88.0511 94.897 87.2841 91.0902 87.2841H69.6129V117.625ZM69.6129 78.0795H89.2152C92.397 78.0795 95.2663 77.4545 97.8232 76.2045C100.408 74.9545 102.454 73.1932 103.96 70.9205C105.494 68.6477 106.261 65.9773 106.261 62.9091C106.261 59.0739 104.925 55.821 102.255 53.1506C99.5845 50.4517 95.3516 49.1023 89.5561 49.1023H69.6129V78.0795Z" fill="#0EA5E9"/>
</svg>
